<mxfile host="Electron" modified="2024-03-29T11:20:52.363Z" agent="Mozilla/5.0 (X11; Linux x86_64) AppleWebKit/537.36 (KHTML, like Gecko) draw.io/24.1.0 Chrome/120.0.6099.109 Electron/28.1.0 Safari/537.36" etag="Q7yFBDkwSNSAbOhst-dw" version="24.1.0" type="device">
  <diagram name="第 1 页" id="fqBcmZnwahuXcXJBRXlG">
    <mxGraphModel dx="1728" dy="993" grid="1" gridSize="10" guides="1" tooltips="1" connect="1" arrows="1" fold="1" page="1" pageScale="1" pageWidth="827" pageHeight="1169" math="1" shadow="0">
      <root>
        <mxCell id="0" />
        <mxCell id="1" parent="0" />
        <mxCell id="WhJH3Y1Wm-iOltpiZc0f-31" value="" style="group" vertex="1" connectable="0" parent="1">
          <mxGeometry x="1" width="423" height="541" as="geometry" />
        </mxCell>
        <mxCell id="WhJH3Y1Wm-iOltpiZc0f-2" value="" style="rounded=0;whiteSpace=wrap;html=1;fillColor=#DAE8FC;dashed=1;strokeColor=none;fontFamily=宋体;fontSize=10.5;container=0;" vertex="1" parent="WhJH3Y1Wm-iOltpiZc0f-31">
          <mxGeometry width="214" height="541" as="geometry" />
        </mxCell>
        <mxCell id="WhJH3Y1Wm-iOltpiZc0f-3" value="" style="rounded=0;whiteSpace=wrap;html=1;fillColor=#EAFFE9;dashed=1;strokeColor=none;fontFamily=宋体;fontSize=10.5;container=0;" vertex="1" parent="WhJH3Y1Wm-iOltpiZc0f-31">
          <mxGeometry x="242" y="163" width="181" height="342" as="geometry" />
        </mxCell>
        <mxCell id="WhJH3Y1Wm-iOltpiZc0f-4" value="" style="edgeStyle=orthogonalEdgeStyle;rounded=0;orthogonalLoop=1;jettySize=auto;html=1;exitX=0.5;exitY=1;exitDx=0;exitDy=0;entryX=0.5;entryY=0;entryDx=0;entryDy=0;fontFamily=宋体;fontSize=13;" edge="1" parent="WhJH3Y1Wm-iOltpiZc0f-31" source="WhJH3Y1Wm-iOltpiZc0f-5" target="WhJH3Y1Wm-iOltpiZc0f-8">
          <mxGeometry relative="1" as="geometry" />
        </mxCell>
        <mxCell id="WhJH3Y1Wm-iOltpiZc0f-5" value="&lt;font style=&quot;font-size: 13px;&quot;&gt;输入：一个 &lt;font face=&quot;Times New Roman&quot; style=&quot;font-size: 13px;&quot;&gt;Batch&lt;/font&gt; 数据`\left( \mathbf{x^{k(i)}}, \mathbf{y^{k(i)}}&lt;br style=&quot;border-color: var(--border-color); font-size: 13px;&quot;&gt;&amp;nbsp;\right)`，网络模型`\mathbf{J}`，损失函数&lt;span style=&quot;font-family: Helvetica; font-size: 12px;&quot;&gt;\(\mathcal{L}\)&lt;/span&gt;，学习率`\eta`，训练轮数`Epochs`&lt;/font&gt;" style="rounded=1;whiteSpace=wrap;html=1;fontSize=13;fontFamily=宋体;container=0;" vertex="1" parent="WhJH3Y1Wm-iOltpiZc0f-31">
          <mxGeometry x="0.8099999999999454" y="29" width="209.87" height="57" as="geometry" />
        </mxCell>
        <mxCell id="WhJH3Y1Wm-iOltpiZc0f-6" value="$$i&amp;lt;Epochs$$" style="rhombus;whiteSpace=wrap;html=1;fontFamily=宋体;fontSize=13;container=0;" vertex="1" parent="WhJH3Y1Wm-iOltpiZc0f-31">
          <mxGeometry x="55.75" y="143" width="100" height="37" as="geometry" />
        </mxCell>
        <mxCell id="WhJH3Y1Wm-iOltpiZc0f-7" value="&lt;b&gt;前向传播&lt;/b&gt;：`\hat{\mathbf{y}}^{k(i)} = \mathbf{J} \left(\mathbf{x}^{k(i)},\mathbf{y}^{k(i)}; \mathbf{W}^{k}\right)`" style="rounded=0;whiteSpace=wrap;html=1;fontFamily=宋体;fontSize=13;container=0;" vertex="1" parent="WhJH3Y1Wm-iOltpiZc0f-31">
          <mxGeometry x="25" y="250" width="161.5" height="43" as="geometry" />
        </mxCell>
        <mxCell id="WhJH3Y1Wm-iOltpiZc0f-8" value="初始化：`i=0`" style="rounded=0;whiteSpace=wrap;html=1;fontFamily=宋体;fontSize=13;container=0;" vertex="1" parent="WhJH3Y1Wm-iOltpiZc0f-31">
          <mxGeometry x="60.75" y="104" width="90" height="20" as="geometry" />
        </mxCell>
        <mxCell id="WhJH3Y1Wm-iOltpiZc0f-9" value="&lt;b&gt;反向传播&lt;/b&gt;：\(\mathbf{\Delta}^{k(i)} = \mathcal{L}\left( \hat{\mathbf{Y}}^{k(i)&lt;br style=&quot;border-color: var(--border-color); font-size: 13px;&quot;&gt;}&lt;br style=&quot;font-size: 13px;&quot;&gt;, \mathbf{Y}^{k(i)}&lt;br style=&quot;font-size: 13px;&quot;&gt;&amp;nbsp;\right)\)`\mathbf{g}\left(\mathbf{w}^{k(i)&lt;br style=&quot;font-size: 13px;&quot;&gt;} \right)=\frac{1}{N}\frac{\partial \mathbf{\Delta}^{k(i)&lt;br style=&quot;font-size: 13px;&quot;&gt;}}{\partial \mathbf{w}^{k(i)}}&lt;br style=&quot;font-size: 13px;&quot;&gt;``\mathbf{g}\left(\mathbf{b}^{k(i)&lt;br style=&quot;font-size: 13px;&quot;&gt;} \right)=\frac{1}{N}&lt;br style=&quot;font-size: 13px;&quot;&gt;\frac{\partial \mathbf{\Delta^{k(i)&lt;br style=&quot;font-size: 13px;&quot;&gt;}}}{\partial \mathbf{b}^{k(i)&lt;br style=&quot;font-size: 13px;&quot;&gt;}}&lt;br style=&quot;border-color: var(--border-color); font-size: 13px;&quot;&gt;`" style="rounded=0;whiteSpace=wrap;html=1;fontFamily=宋体;fontSize=13;container=0;" vertex="1" parent="WhJH3Y1Wm-iOltpiZc0f-31">
          <mxGeometry x="26.75999999999999" y="308" width="158" height="105" as="geometry" />
        </mxCell>
        <mxCell id="WhJH3Y1Wm-iOltpiZc0f-10" value="&lt;b&gt;模型更新&lt;/b&gt;：&lt;br&gt;根据公式&lt;font face=&quot;Times New Roman&quot;&gt;(&lt;font style=&quot;font-size: 13px;&quot;&gt;2-4&lt;/font&gt;)&lt;/font&gt;更新模型参数`\mathbf{W}`、`\mathbf{B}`" style="rounded=0;whiteSpace=wrap;html=1;fontFamily=宋体;fontColor=#007fff;fontSize=13;container=0;" vertex="1" parent="WhJH3Y1Wm-iOltpiZc0f-31">
          <mxGeometry x="253.5" y="193.5" width="148" height="52" as="geometry" />
        </mxCell>
        <mxCell id="WhJH3Y1Wm-iOltpiZc0f-11" value="`i++`" style="rounded=0;whiteSpace=wrap;html=1;fontFamily=宋体;fontSize=13;container=0;" vertex="1" parent="WhJH3Y1Wm-iOltpiZc0f-31">
          <mxGeometry x="83.25999999999999" y="497" width="45" height="14" as="geometry" />
        </mxCell>
        <mxCell id="WhJH3Y1Wm-iOltpiZc0f-12" value="" style="edgeStyle=orthogonalEdgeStyle;rounded=0;orthogonalLoop=1;jettySize=auto;html=1;exitX=0.5;exitY=1;exitDx=0;exitDy=0;entryX=0.5;entryY=0;entryDx=0;entryDy=0;fontFamily=宋体;fontSize=13;" edge="1" parent="WhJH3Y1Wm-iOltpiZc0f-31" source="WhJH3Y1Wm-iOltpiZc0f-8" target="WhJH3Y1Wm-iOltpiZc0f-6">
          <mxGeometry relative="1" as="geometry">
            <mxPoint x="115.75" y="57" as="sourcePoint" />
            <mxPoint x="115.75" y="87" as="targetPoint" />
          </mxGeometry>
        </mxCell>
        <mxCell id="WhJH3Y1Wm-iOltpiZc0f-13" value="" style="edgeStyle=orthogonalEdgeStyle;rounded=0;orthogonalLoop=1;jettySize=auto;html=1;exitX=0.5;exitY=1;exitDx=0;exitDy=0;entryX=0.5;entryY=0;entryDx=0;entryDy=0;fontFamily=宋体;fontSize=13;" edge="1" parent="WhJH3Y1Wm-iOltpiZc0f-31" source="WhJH3Y1Wm-iOltpiZc0f-6" target="WhJH3Y1Wm-iOltpiZc0f-21">
          <mxGeometry relative="1" as="geometry">
            <mxPoint x="125.75" y="197" as="sourcePoint" />
            <mxPoint x="105.75" y="217" as="targetPoint" />
          </mxGeometry>
        </mxCell>
        <mxCell id="WhJH3Y1Wm-iOltpiZc0f-14" value="" style="edgeStyle=orthogonalEdgeStyle;rounded=0;orthogonalLoop=1;jettySize=auto;html=1;exitX=0.5;exitY=1;exitDx=0;exitDy=0;entryX=0.5;entryY=0;entryDx=0;entryDy=0;fontFamily=宋体;fontSize=13;" edge="1" parent="WhJH3Y1Wm-iOltpiZc0f-31" source="WhJH3Y1Wm-iOltpiZc0f-7" target="WhJH3Y1Wm-iOltpiZc0f-9">
          <mxGeometry relative="1" as="geometry">
            <mxPoint x="105.65999999999997" y="372" as="sourcePoint" />
            <mxPoint x="105.65999999999997" y="402" as="targetPoint" />
          </mxGeometry>
        </mxCell>
        <mxCell id="WhJH3Y1Wm-iOltpiZc0f-15" value="" style="edgeStyle=orthogonalEdgeStyle;rounded=0;orthogonalLoop=1;jettySize=auto;html=1;exitX=0.5;exitY=1;exitDx=0;exitDy=0;entryX=0.5;entryY=0;entryDx=0;entryDy=0;fontFamily=宋体;fontSize=13;" edge="1" parent="WhJH3Y1Wm-iOltpiZc0f-31" source="WhJH3Y1Wm-iOltpiZc0f-9" target="WhJH3Y1Wm-iOltpiZc0f-19">
          <mxGeometry relative="1" as="geometry">
            <mxPoint x="105.65999999999997" y="462" as="sourcePoint" />
            <mxPoint x="106.74000000000001" y="482" as="targetPoint" />
          </mxGeometry>
        </mxCell>
        <mxCell id="WhJH3Y1Wm-iOltpiZc0f-16" value="" style="endArrow=classic;html=1;rounded=0;exitX=0;exitY=0.5;exitDx=0;exitDy=0;entryX=0;entryY=0.5;entryDx=0;entryDy=0;fontFamily=宋体;fontSize=13;" edge="1" parent="WhJH3Y1Wm-iOltpiZc0f-31" source="WhJH3Y1Wm-iOltpiZc0f-6" target="WhJH3Y1Wm-iOltpiZc0f-18">
          <mxGeometry width="50" height="50" relative="1" as="geometry">
            <mxPoint x="49.75" y="162" as="sourcePoint" />
            <mxPoint x="77.25" y="437" as="targetPoint" />
            <Array as="points">
              <mxPoint x="7" y="162" />
              <mxPoint x="6" y="527" />
            </Array>
          </mxGeometry>
        </mxCell>
        <mxCell id="WhJH3Y1Wm-iOltpiZc0f-17" value="" style="endArrow=classic;html=1;rounded=0;exitX=1;exitY=0.5;exitDx=0;exitDy=0;entryX=1;entryY=0.5;entryDx=0;entryDy=0;fontFamily=宋体;fontSize=13;" edge="1" parent="WhJH3Y1Wm-iOltpiZc0f-31" source="WhJH3Y1Wm-iOltpiZc0f-11" target="WhJH3Y1Wm-iOltpiZc0f-6">
          <mxGeometry width="50" height="50" relative="1" as="geometry">
            <mxPoint x="313.75" y="427" as="sourcePoint" />
            <mxPoint x="110.75" y="117" as="targetPoint" />
            <Array as="points">
              <mxPoint x="206" y="505" />
              <mxPoint x="209" y="162" />
            </Array>
          </mxGeometry>
        </mxCell>
        <mxCell id="WhJH3Y1Wm-iOltpiZc0f-18" value="&lt;font style=&quot;font-size: 13px;&quot;&gt;输出：最优参数矩阵`\mathbf{W}`、`\mathbf{B}`&lt;/font&gt;" style="rounded=1;whiteSpace=wrap;html=1;fontSize=13;fontFamily=宋体;container=0;" vertex="1" parent="WhJH3Y1Wm-iOltpiZc0f-31">
          <mxGeometry x="27.379999999999995" y="519" width="160" height="17" as="geometry" />
        </mxCell>
        <mxCell id="WhJH3Y1Wm-iOltpiZc0f-19" value="&lt;b&gt;推送&lt;/b&gt;：发送本地梯度`\mathbf{g}\left( \mathbf{w}^{k(i)} \right)`、`\mathbf{g}\left( \mathbf{b}^{k(i)} \right)`至参数服务器" style="rounded=0;whiteSpace=wrap;html=1;fontFamily=宋体;fontColor=#B028D0;fontSize=13;container=0;" vertex="1" parent="WhJH3Y1Wm-iOltpiZc0f-31">
          <mxGeometry x="13.850000000000023" y="427" width="183.81" height="50" as="geometry" />
        </mxCell>
        <mxCell id="WhJH3Y1Wm-iOltpiZc0f-20" value="" style="edgeStyle=orthogonalEdgeStyle;rounded=0;orthogonalLoop=1;jettySize=auto;html=1;exitX=0.5;exitY=1;exitDx=0;exitDy=0;entryX=0.5;entryY=0;entryDx=0;entryDy=0;fontFamily=宋体;fontSize=13;" edge="1" parent="WhJH3Y1Wm-iOltpiZc0f-31" source="WhJH3Y1Wm-iOltpiZc0f-19" target="WhJH3Y1Wm-iOltpiZc0f-11">
          <mxGeometry relative="1" as="geometry">
            <mxPoint x="115.74000000000001" y="502" as="sourcePoint" />
            <mxPoint x="86.75" y="497" as="targetPoint" />
          </mxGeometry>
        </mxCell>
        <mxCell id="WhJH3Y1Wm-iOltpiZc0f-21" value="&lt;b&gt;拉取&lt;/b&gt;：从参数服务器获取最新全局参数矩阵`\mathbf{W}^{k}`" style="rounded=0;whiteSpace=wrap;html=1;fontFamily=宋体;fontColor=#007fff;fontSize=13;container=0;" vertex="1" parent="WhJH3Y1Wm-iOltpiZc0f-31">
          <mxGeometry x="32.870000000000005" y="203" width="145.75" height="33" as="geometry" />
        </mxCell>
        <mxCell id="WhJH3Y1Wm-iOltpiZc0f-22" value="" style="edgeStyle=orthogonalEdgeStyle;rounded=0;orthogonalLoop=1;jettySize=auto;html=1;exitX=0.5;exitY=1;exitDx=0;exitDy=0;entryX=0.5;entryY=0;entryDx=0;entryDy=0;fontFamily=宋体;fontSize=13;" edge="1" parent="WhJH3Y1Wm-iOltpiZc0f-31" source="WhJH3Y1Wm-iOltpiZc0f-21" target="WhJH3Y1Wm-iOltpiZc0f-7">
          <mxGeometry relative="1" as="geometry">
            <mxPoint x="115.75" y="197" as="sourcePoint" />
            <mxPoint x="115.75" y="257" as="targetPoint" />
          </mxGeometry>
        </mxCell>
        <mxCell id="WhJH3Y1Wm-iOltpiZc0f-23" value="&lt;b&gt;汇聚数据&lt;/b&gt;：&lt;br&gt;`\mathbf{g}\left(\mathbf{w}^{(i)&lt;br style=&quot;border-color: var(--border-color); font-size: 13px;&quot;&gt;} \right)=&lt;br style=&quot;font-size: 13px;&quot;&gt;\sum_{k=1}^{N}\mathbf{g}\left(\mathbf{w}^{k(i)&lt;br style=&quot;border-color: var(--border-color); font-size: 13px;&quot;&gt;} \right)&lt;br style=&quot;font-size: 13px;&quot;&gt;``\mathbf{g}\left(\mathbf{b}^{(i)&lt;br style=&quot;border-color: var(--border-color); font-size: 13px;&quot;&gt;} \right)=&lt;br style=&quot;border-color: var(--border-color); font-size: 13px;&quot;&gt;\sum_{k=1}^{N}\mathbf{g}\left(\mathbf{b}^{k(i)&lt;br style=&quot;border-color: var(--border-color); font-size: 13px;&quot;&gt;} \right)&lt;br style=&quot;border-color: var(--border-color); font-size: 13px;&quot;&gt;`" style="rounded=0;whiteSpace=wrap;html=1;fontFamily=宋体;fontColor=#B028D0;fontSize=13;container=0;" vertex="1" parent="WhJH3Y1Wm-iOltpiZc0f-31">
          <mxGeometry x="253" y="402.5" width="149" height="99" as="geometry" />
        </mxCell>
        <mxCell id="WhJH3Y1Wm-iOltpiZc0f-24" value="" style="shape=flexArrow;endArrow=classic;html=1;rounded=0;entryX=1;entryY=0.5;entryDx=0;entryDy=0;exitX=0;exitY=0.5;exitDx=0;exitDy=0;strokeColor=#007FFF;labelBackgroundColor=default;fontColor=default;fillColor=#007FFF;fontFamily=宋体;fontSize=13;" edge="1" parent="WhJH3Y1Wm-iOltpiZc0f-31" source="WhJH3Y1Wm-iOltpiZc0f-10" target="WhJH3Y1Wm-iOltpiZc0f-21">
          <mxGeometry width="50" height="50" relative="1" as="geometry">
            <mxPoint x="366" y="337" as="sourcePoint" />
            <mxPoint x="416" y="287" as="targetPoint" />
          </mxGeometry>
        </mxCell>
        <mxCell id="WhJH3Y1Wm-iOltpiZc0f-25" value="" style="endArrow=classic;startArrow=classic;html=1;rounded=0;exitX=0.5;exitY=1;exitDx=0;exitDy=0;fontFamily=宋体;fontSize=13;strokeWidth=6;" edge="1" parent="WhJH3Y1Wm-iOltpiZc0f-31" source="WhJH3Y1Wm-iOltpiZc0f-10" target="WhJH3Y1Wm-iOltpiZc0f-23">
          <mxGeometry width="50" height="50" relative="1" as="geometry">
            <mxPoint x="564" y="308" as="sourcePoint" />
            <mxPoint x="614" y="258" as="targetPoint" />
          </mxGeometry>
        </mxCell>
        <mxCell id="WhJH3Y1Wm-iOltpiZc0f-26" value="&lt;font style=&quot;font-size: 18px;&quot;&gt;参数服务器&lt;/font&gt;" style="text;html=1;strokeColor=none;fillColor=none;align=center;verticalAlign=middle;whiteSpace=wrap;rounded=0;fontColor=#FF33FF;fontFamily=宋体;fontSize=18;fontStyle=1;container=0;" vertex="1" parent="WhJH3Y1Wm-iOltpiZc0f-31">
          <mxGeometry x="279.5" y="168" width="96" height="20" as="geometry" />
        </mxCell>
        <mxCell id="WhJH3Y1Wm-iOltpiZc0f-27" value="&lt;b style=&quot;color: rgb(0, 127, 255); font-family: 宋体; font-size: 13px; font-style: normal; font-variant-ligatures: normal; font-variant-caps: normal; letter-spacing: normal; orphans: 2; text-align: center; text-indent: 0px; text-transform: none; widows: 2; word-spacing: 0px; -webkit-text-stroke-width: 0px; white-space: normal; background-color: rgb(251, 251, 251); text-decoration-thickness: initial; text-decoration-style: initial; text-decoration-color: initial;&quot;&gt;拉取&lt;/b&gt;" style="text;whiteSpace=wrap;html=1;verticalAlign=middle;container=0;" vertex="1" parent="WhJH3Y1Wm-iOltpiZc0f-31">
          <mxGeometry x="215" y="180" width="17" height="31" as="geometry" />
        </mxCell>
        <mxCell id="WhJH3Y1Wm-iOltpiZc0f-28" value="&lt;b style=&quot;color: rgb(176, 40, 208); font-family: 宋体; font-size: 13px; font-style: normal; font-variant-ligatures: normal; font-variant-caps: normal; letter-spacing: normal; orphans: 2; text-align: center; text-indent: 0px; text-transform: none; widows: 2; word-spacing: 0px; -webkit-text-stroke-width: 0px; white-space: normal; background-color: rgb(251, 251, 251); text-decoration-thickness: initial; text-decoration-style: initial; text-decoration-color: initial;&quot;&gt;推送&lt;/b&gt;" style="text;whiteSpace=wrap;html=1;verticalAlign=middle;container=0;" vertex="1" parent="WhJH3Y1Wm-iOltpiZc0f-31">
          <mxGeometry x="214" y="413" width="19" height="34" as="geometry" />
        </mxCell>
        <mxCell id="WhJH3Y1Wm-iOltpiZc0f-29" value="" style="shape=flexArrow;endArrow=classic;html=1;rounded=0;entryX=0;entryY=0.5;entryDx=0;entryDy=0;exitX=1;exitY=0.5;exitDx=0;exitDy=0;strokeColor=none;labelBackgroundColor=default;fontColor=default;fillColor=#B028D0;fontFamily=宋体;fontSize=13;" edge="1" parent="WhJH3Y1Wm-iOltpiZc0f-31" source="WhJH3Y1Wm-iOltpiZc0f-19" target="WhJH3Y1Wm-iOltpiZc0f-23">
          <mxGeometry width="50" height="50" relative="1" as="geometry">
            <mxPoint x="542.3800000000001" y="220" as="sourcePoint" />
            <mxPoint x="462.3800000000001" y="220" as="targetPoint" />
          </mxGeometry>
        </mxCell>
        <mxCell id="WhJH3Y1Wm-iOltpiZc0f-30" value="&lt;font style=&quot;font-size: 18px;&quot;&gt;Worker&lt;/font&gt;" style="text;html=1;strokeColor=none;fillColor=none;align=center;verticalAlign=middle;whiteSpace=wrap;rounded=0;fontColor=#FF33FF;fontFamily=Times New Roman;fontSize=18;fontStyle=1;container=0;" vertex="1" parent="WhJH3Y1Wm-iOltpiZc0f-31">
          <mxGeometry x="72.39" y="4" width="66.74" height="18" as="geometry" />
        </mxCell>
      </root>
    </mxGraphModel>
  </diagram>
</mxfile>
